<?xml version="1.0" encoding="UTF-8" standalone="no"?>
<!-- Created with Inkscape (http://www.inkscape.org/) -->

<svg
   width="432mm"
   height="145mm"
   viewBox="0 0 432 145"
   version="1.1"
   id="svg1"
   xml:space="preserve"
   inkscape:version="1.4.2 (ebf0e940d0, 2025-05-08)"
   sodipodi:docname="logo.svg"
   xmlns:inkscape="http://www.inkscape.org/namespaces/inkscape"
   xmlns:sodipodi="http://sodipodi.sourceforge.net/DTD/sodipodi-0.dtd"
   xmlns="http://www.w3.org/2000/svg"
   xmlns:svg="http://www.w3.org/2000/svg"><sodipodi:namedview
     id="namedview1"
     pagecolor="#505050"
     bordercolor="#ffffff"
     borderopacity="1"
     inkscape:showpageshadow="0"
     inkscape:pageopacity="0"
     inkscape:pagecheckerboard="1"
     inkscape:deskcolor="#505050"
     inkscape:document-units="mm"
     inkscape:zoom="0.49388889"
     inkscape:cx="591.2261"
     inkscape:cy="497.07537"
     inkscape:window-width="1904"
     inkscape:window-height="1040"
     inkscape:window-x="0"
     inkscape:window-y="0"
     inkscape:window-maximized="1"
     inkscape:current-layer="svg1" /><defs
     id="defs1" /><path
     style="display:inline;fill:#000000;stroke:#ffffff;stroke-width:2.98866;stroke-dasharray:none;stroke-opacity:1"
     d="m 1.4949323,91.128357 c 0,-38.60282 0,-38.60282 28.9366437,-38.60282 28.936634,0 28.936634,0 28.936634,4.792075 0,4.792075 0,4.792075 4.778526,4.792075 4.778528,0 4.778528,0 4.778528,9.717262 0,9.717258 0,9.717258 -4.778528,9.717258 -4.778526,0 -4.778526,0 -4.778526,4.792076 0,4.792074 0,4.792074 4.778526,4.792074 4.778528,0 4.778528,0 4.778528,19.301403 0,19.30142 0,19.30142 -9.557054,19.30142 -9.557055,0 -9.557055,0 -9.557055,-19.30142 0,-19.301403 0,-19.301403 -14.601052,-19.301403 -14.601062,0 -14.601062,0 -14.601062,19.301403 0,19.30142 0,19.30142 -9.557054,19.30142 -9.5570547,0 -9.5570547,0 -9.5570547,-38.602823 z M 49.811155,71.826949 c 0,-9.717262 0,-9.717262 -14.601052,-9.717262 -14.601062,0 -14.601062,0 -14.601062,9.717262 0,9.717258 0,9.717258 14.601062,9.717258 14.601052,0 14.601052,0 14.601052,-9.717258 z M 199.00738,91.128357 c 0,-38.60282 0,-38.60282 4.77853,-38.60282 4.77853,0 4.77853,0 4.77853,4.792075 0,4.792075 0,4.792075 4.77854,4.792075 4.77853,0 4.77853,0 4.77853,4.792073 0,4.792075 0,4.792075 4.91126,4.792075 4.91126,0 4.91126,0 4.91126,4.925188 0,4.925184 0,4.925184 4.77853,4.925184 4.77852,0 4.77852,0 4.77852,-4.925184 0,-4.925188 0,-4.925188 4.91127,-4.925188 4.91126,0 4.91126,0 4.91126,-4.792075 0,-4.792073 0,-4.792073 4.77853,-4.792073 4.77852,0 4.77852,0 4.77852,-4.792075 0,-4.792075 0,-4.792075 4.77854,-4.792075 4.77852,0 4.77852,0 4.77852,38.60282 0,38.602823 0,38.602823 -9.55706,38.602823 -9.55705,0 -9.55705,0 -9.55705,-19.30142 0,-19.301403 0,-19.301403 -4.91126,-19.301403 -4.91127,0 -4.91127,0 -4.91127,4.925186 0,4.925197 0,4.925197 -4.64578,4.925197 -4.64579,0 -4.64579,0 -4.64579,-4.925197 0,-4.925186 0,-4.925186 -5.04401,-4.925186 -5.04399,0 -5.04399,0 -5.04399,19.301403 0,19.30142 0,19.30142 -9.55707,19.30142 -9.55706,0 -9.55706,0 -9.55706,-38.602823 z m 91.58845,33.810753 c 0,-4.79208 0,-4.79208 -4.77853,-4.79208 -4.77853,0 -4.77853,0 -4.77853,-14.50934 0,-14.509333 0,-14.509333 4.77853,-14.509333 4.77853,0 4.77853,0 4.77853,-4.792074 0,-4.792076 0,-4.792076 24.1581,-4.792076 24.15812,0 24.15812,0 24.15812,4.792076 0,4.792074 0,4.792074 4.77852,4.792074 4.77853,0 4.77853,0 4.77853,9.717263 0,9.71725 0,9.71725 -24.1581,9.71725 -24.15812,0 -24.15812,0 -24.15812,4.9252 0,4.92519 0,4.92519 19.37959,4.92519 19.37958,0 19.37958,0 19.37958,4.65896 0,4.65896 0,4.65896 -24.15812,4.65896 -24.1581,0 -24.1581,0 -24.1581,-4.79207 z M 329.355,96.053543 c 0,-4.925186 0,-4.925186 -14.60107,-4.925186 -14.60105,0 -14.60105,0 -14.60105,4.925186 0,4.925197 0,4.925197 14.60105,4.925197 14.60107,0 14.60107,0 14.60107,-4.925197 z m 43.27221,28.885567 c 0,-4.79208 0,-4.79208 -4.77852,-4.79208 -4.77853,0 -4.77853,0 -4.77853,-14.50934 0,-14.509333 0,-14.509333 4.77853,-14.509333 4.77852,0 4.77852,0 4.77852,-4.792074 0,-4.792076 0,-4.792076 24.15812,-4.792076 24.1581,0 24.1581,0 24.1581,4.792076 0,4.792074 0,4.792074 4.77853,4.792074 4.77853,0 4.77853,0 4.77853,14.509333 0,14.50934 0,14.50934 -4.77853,14.50934 -4.77853,0 -4.77853,0 -4.77853,4.79208 0,4.79207 0,4.79207 -24.1581,4.79207 -24.15812,0 -24.15812,0 -24.15812,-4.79207 z m 38.75917,-19.16831 c 0,-14.642443 0,-14.642443 -14.60105,-14.642443 -14.60107,0 -14.60107,0 -14.60107,14.642443 0,14.64246 0,14.64246 14.60107,14.64246 14.60105,0 14.60105,0 14.60105,-14.64246 z"
     id="path1"
     inkscape:label="Text"
     sodipodi:nodetypes="sssssssssssssssssssssssssssssssssssssssssssssssssssssssssssssssssssssssssssssssssss" /><g
     inkscape:groupmode="layer"
     id="layer4"
     inkscape:label="Joystick"
     style="display:inline"
     transform="matrix(1.0000265,0,0,0.99242095,0.99057881,1.4893185)"><path
       style="display:inline;fill:#ffffff;fill-opacity:1;stroke:#ffffff;stroke-width:2.97442;stroke-dasharray:none;stroke-opacity:1"
       d="m -27.080081,-45.24854 c -0.160641,0.05902 7.9389,7.548712 14.941878,14.588874 19.6059291,19.710031 18.7827499,18.753778 19.0674674,22.1498854 0.1993173,2.3774559 -0.2694913,4.5375981 -2.6493502,12.2074815 l -1.927262,6.2112402 -30.1482292,11.7543039 -30.148229,11.754304 -2.645833,0.09314 c -2.223013,0.07826 -2.878385,0.0025 -4.101042,-0.474144 l 5.3e-5,-10e-7 c -1.388731,-0.54137 -3.435354,-1.782632 -4.680829,-2.83889 -0.318882,-0.270437 -2.0342,-2.799995 -3.811817,-5.62124 -1.777617,-2.821245 -6.54252,-10.395169 -10.588673,-16.8309423 l -7.356642,-11.7014061 -2.391436,-8.7502986 c -1.31529,-4.812664 -2.384306,-9.0125 -2.281153,-10.982968 0.103154,-1.970468 0.822029,-3.444692 1.845178,-4.200281 0.587456,-0.433832 6.950033,-2.287633 22.253912,-6.483902 11.787187,-3.232005 21.639609,-5.936481 21.89427,-6.009948 0.367284,-0.105957 1.568551,-1.750512 1.568551,-2.883304 m 4.715306,0.933296 h -3.96875 m 0,0 h 3.96875"
       id="path4"
       sodipodi:nodetypes="cssscccsccssscscsssccccc"
       inkscape:label="Ombra"
       transform="matrix(1.0033312,0,0,1.0138942,178.49843,109.10177)" /><path
       style="display:inline;fill:#000000;stroke:#ffffff;stroke-width:0;stroke-dasharray:none;stroke-opacity:1"
       d="m -24.578815,-43.567268 c -0.160641,0.05902 5.437634,5.86744 12.440612,12.907602 19.6059291,19.710031 18.7827499,18.753778 19.0674674,22.1498854 0.1993173,2.3774559 -0.2694913,4.5375981 -2.6493502,12.2074815 l -1.927262,6.2112402 -30.1482292,11.7543039 -30.148229,11.754304 -2.645833,0.09314 c -2.223013,0.07826 -2.878385,0.0025 -4.101042,-0.474144 l 5.3e-5,-10e-7 c -7.872025,-3.068757 -6.327527,-6.368846 -6.146688,-11.578342 0.116638,-3.360041 0.168967,-6.112366 0.288679,-6.112366 0.119711,0 0.776677,0.16824 1.459924,0.373868 0.683248,0.205627 2.33928,0.37774 3.680071,0.382474 2.084428,0.0074 2.955571,-0.144295 6.009679,-1.046196 1.964531,-0.580142 3.869531,-1.160115 4.233333,-1.288831 0.363802,-0.128715 1.554427,-0.492201 2.645833,-0.807747 1.091407,-0.315546 2.817813,-0.847109 3.836459,-1.181251 1.018645,-0.334142 2.745052,-0.869812 3.836458,-1.190378 1.091406,-0.320567 2.639219,-0.7968259 3.439583,-1.0583543 0.800365,-0.2615284 2.348177,-0.7459509 3.439584,-1.0764944 1.091406,-0.3305436 2.817812,-0.8682021 3.836458,-1.1947967 1.018646,-0.3265946 2.745052,-0.8543144 3.836458,-1.1727105 1.091407,-0.3183961 2.817813,-0.8445071 3.836459,-1.1691356 1.018645,-0.3246285 2.566458,-0.8078856 3.439583,-1.0739046 0.873125,-0.2660191 2.420937,-0.7519393 3.439583,-1.0798228 1.018646,-0.3278834 2.745052,-0.8566576 3.836459,-1.1750537 1.091406,-0.3183962 2.817812,-0.84450721 3.836458,-1.16913569 1.018646,-0.32462848 2.5664583,-0.80400812 3.4395833,-1.06528809 0.873125,-0.26127997 2.4209375,-0.74727722 3.4395833,-1.07999402 1.0186458,-0.3327167 2.7450521,-0.8672549 3.8364583,-1.1878626 1.0914063,-0.3206077 2.8178125,-0.8528875 3.8364584,-1.1828441 1.0186458,-0.3299566 2.2608151,-0.7059982 2.7603761,-0.8356482 1.1308474,-0.2934863 1.4282409,-1.1410225 1.2144409,-3.4610127 -0.051464,-0.5584475 -0.5563568,-5.499459 -2.0940914,-2.875512 -1.3570029,2.3155501 -2.1136317,2.6903528 -11.0088506,5.4533303 -3.2223338,1.0009013 -8.5780553,2.7016419 -11.2447913,3.5708489 -1.018646,0.3320217 -3.280834,1.0461725 -5.027084,1.58700183 -1.74625,0.54082932 -4.008437,1.25354644 -5.027083,1.58381582 -2.142034,0.69449855 -5.253953,1.67746025 -10.847917,3.42653065 -2.182812,0.6825021 -4.266406,1.3434468 -4.630208,1.4687658 -0.363802,0.1253191 -2.447396,0.7835419 -4.630208,1.4627175 -2.182813,0.6791756 -4.802188,1.5097629 -5.820834,1.8457497 -5.457253,1.8000025 -5.56657,1.8197045 -10.186458,1.8359215 -3.841828,0.01349 -4.497714,-0.04817 -5.46653,-0.513843 C -70.3706,9.966923 -71.279985,8.694388 -80.046304,-4.4979144 -93.954442,-25.428062 -96.344683,-25.901427 -93.956,-27.889482 c 0.587456,-0.433832 6.950033,-2.287633 22.253912,-6.483902 11.787187,-3.232005 21.639609,-5.936481 21.89427,-6.009948 0.367284,-0.105957 1.521357,-1.049982 1.521357,-2.182774 m -8.559565,48.089235 c 2.01053,-0.9418377 3.274055,-2.2945119 3.252338,-3.4818123 -0.01401,-0.7658177 -0.047,-0.8004208 -0.330729,-0.3468353 -0.802369,1.2827283 -1.858184,2.2332218 -3.273689,2.9471266 -1.430145,0.721289 -1.745951,0.7756548 -4.449814,0.7660337 -2.423405,-0.00862 -3.125298,-0.1081308 -4.194568,-0.5946652 -1.55158,-0.7059933 -2.515739,-1.4382999 -3.140095,-2.3849943 l -0.467058,-0.7081882 -0.0017,0.7040844 c -0.002,0.7941681 1.000264,1.76459 2.738033,2.6511333 3.293365,1.6801494 6.888764,1.8434317 9.867326,0.4481173 z m 21.127273,-12.1106159 c 0.582083,-0.1318122 1.653646,-0.3730522 2.38125,-0.5360888 0.727604,-0.1630365 1.441979,-0.333279 1.5875,-0.3783165 0.145521,-0.045038 0.799986,-0.2335069 1.454367,-0.4188207 1.931714,-0.5470407 5.304306,-2.2364531 7.051927,-3.5324791 4.451138,-3.300939 5.294464,-7.9904 2.067389,-11.496076 l -1.159964,-1.260105 -0.01299,1.719792 c -0.01064,1.408485 -0.15522,1.967786 -0.798739,3.089823 -1.80431,3.14599 -6.091043,5.485098 -12.835325,7.003751 -2.106513,0.474337 -11.565743,0.486806 -13.758334,0.01814 -8.610848,-1.840582 -14.106306,-6.033602 -13.746507,-10.488549 0.08624,-1.067766 1.368696,-3.878716 1.840257,-4.033557 0.159811,-0.05248 0.273848,0.724986 0.287978,1.963321 0.03519,3.084156 1.333579,5.169142 4.543005,7.295294 4.074091,2.698967 7.812492,3.684491 13.954434,3.678693 6.168135,-0.0058 9.892166,-0.987559 13.954434,-3.678693 3.215216,-2.129988 4.566399,-4.347455 4.566399,-7.494054 0,-1.678158 -0.112875,-2.184521 -0.731466,-3.281381 -0.402306,-0.713353 -0.661805,-1.366667 -0.576664,-1.451808 0.233648,-0.233649 3.368861,1.515157 4.971785,2.773237 1.834897,1.440148 3.173513,3.091733 3.841686,4.739875 0.40466,0.998149 0.538148,1.159414 0.546039,0.659661 0.01172,-0.742029 -0.436359,-2.09123 -1.116342,-3.361417 -1.224681,-2.287665 -5.118037,-5.131189 -9.183996,-6.707558 -1.236927,-0.479556 -3.180437,-1.32725 -4.31891,-1.883764 -1.138474,-0.556515 -2.239802,-1.011845 -2.447396,-1.011845 -0.207594,0 -0.377444,-0.119063 -0.377444,-0.264583 0,-0.382512 0.387004,-0.337299 3.181068,0.371631 5.074191,1.287462 8.900948,2.880964 12.144293,5.057012 1.739946,1.167378 4.119138,3.44337 5.111838,4.890107 0.869161,1.266695 0.157464,-0.330648 -0.798128,-1.791328 -2.448063,-3.742014 -7.679299,-7.007606 -14.347404,-8.956347 -1.933862,-0.565168 -5.8013,-1.422973 -6.416146,-1.423113 -0.109141,-2.5e-5 -0.198438,0.93832 -0.198438,2.085211 v 2.085257 l 1.213961,0.305678 c 1.862547,0.468995 4.975069,2.062278 6.290246,3.219944 1.31254,1.155344 2.288448,2.90855 2.279566,4.095212 -0.01509,2.015923 -2.060531,4.441158 -4.99502,5.922483 -3.734252,1.885045 -7.693491,2.691134 -13.10916,2.668985 -6.048146,-0.02474 -10.760885,-1.197859 -14.254587,-3.548336 -4.337356,-2.918066 -4.522891,-6.650115 -0.481564,-9.68671 1.574293,-1.182901 4.768549,-2.568418 6.411895,-2.781176 l 1.166538,-0.151028 -1.271799,0.539534 c -4.289054,1.81954 -6.229369,4.34992 -5.477279,7.142967 1.344319,4.992421 13.035505,7.762089 21.565745,5.108971 4.300697,-1.337624 6.999837,-3.763595 6.999837,-6.291413 0,-2.183342 -2.06568,-4.405459 -5.38431,-5.792071 -1.336139,-0.558275 -1.301647,0.107121 0.03812,0.735355 2.629197,1.232868 4.035731,2.776285 4.033907,4.426488 -0.0056,5.056445 -12.577458,8.017036 -20.901095,4.922067 -2.634468,-0.979572 -4.156955,-2.219892 -4.895693,-3.98836 -0.408259,-0.977336 -0.400644,-1.070218 0.184402,-2.248959 0.707325,-1.425105 2.623135,-2.844199 4.871467,-3.60843 l 1.427324,-0.485163 v -2.470568 -2.470567 l -0.992187,8e-4 c -0.995026,8.03e-4 -5.359522,0.793783 -7.342188,1.333992 -4.010174,1.092638 -8.17095,2.92102 -10.951809,4.812585 -3.299493,2.244345 -5.865523,5.866223 -6.23575,8.801582 l -0.166855,1.322916 0.496148,-1.375876 c 1.787979,-4.958275 8.128308,-9.579811 16.196808,-11.806033 3.92147,-1.081993 7.14375,-1.641938 7.14375,-1.241389 0,0.115898 -0.327422,0.290342 -0.727604,0.387654 -0.400183,0.09731 -1.680104,0.63048 -2.844271,1.184818 -1.164167,0.554338 -2.822471,1.267792 -3.685121,1.585453 -3.800748,1.399583 -7.611087,4.005669 -9.170469,6.272153 -0.875862,1.273022 -1.836006,3.993578 -1.808906,5.125512 0.01053,0.439873 0.125067,0.256342 0.341903,-0.54786 0.501911,-1.861488 1.578307,-3.476792 3.474955,-5.214726 1.606463,-1.472032 5.290755,-3.71895 5.596562,-3.413143 0.255896,0.255896 -0.71255,1.420649 -1.875807,2.256037 -0.643404,0.462058 -1.505722,1.380977 -1.916262,2.042043 -0.410541,0.661066 -1.126267,1.777621 -1.590501,2.481232 -1.308778,1.983631 -1.735083,3.181608 -1.74723,4.909959 -0.03551,5.051744 6.135814,9.4725884 15.952751,11.4278035 2.992453,0.5959994 13.01532,0.6663659 15.478125,0.1086656 z m -10.31875,-1.7831079 c -1.171175,-0.092789 -4.432828,-0.6013719 -6.577635,-1.0256377 -1.470639,-0.2909081 -4.031213,-1.2308005 -6.122365,-2.2472945 -2.780649,-1.351654 -4.892367,-3.250625 -5.934959,-5.337036 -0.745483,-1.491844 -1.089269,-3.392728 -0.613479,-3.392083 0.109141,1.48e-4 0.517262,0.565695 0.906935,1.256771 1.292176,2.291643 3.62436,4.015382 7.563341,5.590136 2.407049,0.962307 4.710856,1.500396 8.529204,1.992125 3.829848,0.493209 5.995589,0.501945 9.392708,0.03789 3.297117,-0.450399 3.24944,-0.441079 6.746875,-1.318803 0.722361,-0.181285 3.165687,-1.19475 4.452729,-1.846944 3.260789,-1.652367 5.59392,-4.439316 5.598955,-6.688012 0.0034,-1.540235 0.401604,-1.630596 0.942634,-0.213929 1.294302,3.389081 -1.170242,7.329877 -6.163422,9.855286 -1.859985,0.940728 -4.692753,1.9665009 -6.426116,2.3269589 -3.982346,0.8281405 -9.19275,1.2563908 -12.295405,1.0105763 z m 7.435194,-16.1156602 c 5.312396,-1.142684 7.242972,-3.283564 4.991403,-5.535132 -0.514173,-0.514174 -1.036068,-0.934861 -1.159766,-0.934861 -0.258287,0 -0.542296,0.91929 -0.547593,1.772472 -0.0047,0.756935 -1.318524,1.729472 -3.178613,2.352919 -2.078558,0.696672 -7.732771,0.692424 -9.789583,-0.0074 -1.846188,-0.628118 -2.580951,-1.108429 -3.033048,-1.982687 -0.254349,-0.491857 -0.282118,-0.835951 -0.09452,-1.171179 0.459072,-0.820317 0.04839,-0.757564 -0.675973,0.103289 -1.858024,2.208136 0.07996,4.253116 5.126452,5.409473 1.870162,0.428531 6.354016,0.42481 8.361236,-0.0069 z m -4.921652,-17.847085 h -3.96875 m 0,0 v 6.576307 6.576307 l 1.389062,0.404354 c 1.856629,0.540462 2.579688,0.559822 2.579688,0.06907 v 1.2e-5 -7.156962 -6.469088"
       id="path2"
       sodipodi:nodetypes="cssscccsccssscsssssssssssssssssssssssssssssssssssccssssssccsccsssssscssscsssscssssssssssssssssssscsssssssscsssssscsssscccsssscssssssssssssssssssssssssssssscsssssssssscsssssscccccscccc"
       inkscape:label="Joystick"
       transform="matrix(1.0033312,0,0,1.0138942,178.49843,109.10177)" /><path
       d="m 122.2034,105.04394 c -2.87907,-1.9727 -7.26608,-2.19128 -10.46044,-0.52116 -1.30174,0.68059 -2.63746,2.36538 -2.84115,3.58362 -0.1496,0.89482 -0.0654,1.28614 0.47778,2.22292 1.32337,2.28193 4.2021,3.46692 7.97898,3.28444 2.64711,-0.12789 4.37698,-1.27572 5.97804,-2.47179 3.2646,-2.43879 -0.66394,-5.77811 -1.13321,-6.09803 z"
       style="fill:#bd0000;fill-opacity:1;stroke-width:0.981268"
       id="path1-6"
       sodipodi:nodetypes="ssscsss"
       inkscape:label="Pulsante" /></g><g
     inkscape:groupmode="layer"
     id="layer3"
     inkscape:label="Rosa"
     style="display:inline"
     transform="matrix(1.0000265,0,0,0.99242095,0.99057881,1.4893185)"><path
       d="m -49.555858,-44.573335 c -0.874358,-0.566948 -1.688886,-0.90446 -2.040643,-0.845573 -0.359155,0.06013 -0.799844,-0.130222 -1.14016,-0.492471 -0.392839,-0.418158 -0.996083,-0.640413 -2.067088,-0.761583 -1.634694,-0.184945 -2.901736,-0.813906 -3.607694,-1.790865 -0.90248,-1.248922 -4.648652,-8.329643 -5.062081,-9.567949 l -0.4269,-1.278657 0.739493,-0.771864 c 0.406721,-0.424525 0.854541,-0.771864 0.995155,-0.771864 0.140615,0 0.876878,0.587519 1.636141,1.305598 0.979925,0.926773 1.793428,1.426935 2.80369,1.723781 1.761953,0.517714 1.712251,0.480198 3.089828,2.332267 2.192868,2.948181 4.261482,3.683097 8.816033,3.132068 1.510585,-0.182757 2.953262,-0.4422 3.205949,-0.576541 0.252687,-0.134341 1.41737,-0.244256 2.588185,-0.244256 1.288514,0 2.501637,-0.1558 3.073452,-0.394719 0.87773,-0.366739 0.992191,-0.357361 1.614683,0.132291 0.368493,0.289856 0.821351,0.527012 1.006352,0.527012 0.203041,0 0.408566,0.524956 0.51852,1.324414 0.144845,1.05315 0.08219,1.481984 -0.305902,2.093723 -0.590628,0.930993 -2.224191,2.263668 -3.663054,2.988354 -0.582084,0.293167 -1.688587,1.014172 -2.458897,1.602235 l -1.400564,1.069205 -3.229645,0.104487 -3.229644,0.104487 z m 14.155209,-0.0094 c -0.145521,-0.05683 -0.770599,-0.233402 -1.389063,-0.39237 -0.618463,-0.158969 -1.122545,-0.373742 -1.120181,-0.477273 0.0024,-0.103532 0.83864,-0.774092 1.858392,-1.490135 2.331549,-1.63715 2.982089,-2.62766 2.858811,-4.352811 l -0.09129,-1.277537 1.094929,0.123763 c 1.366466,0.154456 3.520803,-0.533285 4.313434,-1.377002 0.324267,-0.345166 1.025977,-0.706069 1.559357,-0.802007 1.34433,-0.241801 3.642837,-1.812751 4.16972,-2.849861 0.241039,-0.474457 0.831422,-1.517494 1.311961,-2.317858 0.48054,-0.800365 1.195432,-2.377943 1.58865,-3.50573 0.393218,-1.127786 0.809998,-2.05052 0.926178,-2.05052 0.390712,0 0.55863,2.745861 0.469221,7.672916 -0.100634,5.545725 -0.268865,6.129577 -2.309241,8.014311 -0.705103,0.651317 -1.085667,1.230978 -1.085667,1.653646 0,0.511039 -0.136725,0.650794 -0.636685,0.650794 -0.350177,0 -1.562392,0.625078 -2.693811,1.389062 -2.028233,1.369554 -2.081533,1.387868 -3.795085,1.303979 -2.81873,-0.137995 -5.667771,-0.119963 -6.235877,0.03947 -0.291042,0.08168 -0.64823,0.102001 -0.79375,0.04517 z m -25.532292,-5.936567 c -0.7203,-0.42176 -3.626437,-1.074434 -7.197335,-1.61641 -1.93506,-0.293696 -3.722944,-0.596404 -3.973076,-0.672686 -1.115505,-0.34019 -1.05426,-2.950296 0.138518,-5.903317 l 0.621409,-1.538454 -1.984124,-0.05252 c -1.091268,-0.02888 -2.177929,-0.156237 -2.414803,-0.283008 -0.236875,-0.126772 -0.781894,-0.923647 -1.211156,-1.770834 l -0.780475,-1.540341 0.0061,-5.027083 0.0061,-5.027084 2.63972,-1.3727 c 1.451846,-0.754985 2.705548,-1.380064 2.786005,-1.389063 0.08046,-0.009 0.346575,1.022595 0.591374,2.292432 0.244798,1.269837 0.774283,2.96405 1.176631,3.764918 0.697889,1.389137 0.804575,1.477508 2.319043,1.920945 0.873125,0.255652 1.851202,0.466439 2.173504,0.468416 0.745317,0.0046 1.133788,0.731039 1.133788,2.120261 0,1.255434 0.249118,1.815767 1.490184,3.35182 1.064628,1.317678 1.084518,1.487649 0.238917,2.041708 -1.633997,1.070636 -1.430417,2.16975 1.316958,7.110171 0.944042,1.697609 1.716441,3.150628 1.716441,3.228931 0,0.20622 -0.337369,0.161122 -0.79375,-0.106106 z m 10.934277,-2.409099 c -1.776624,-0.351292 -2.620917,-0.935375 -4.184151,-2.894601 -0.809528,-1.014594 -1.70805,-1.971116 -1.996715,-2.125605 -0.384722,-0.205897 -0.482572,-0.449323 -0.366505,-0.911771 0.119254,-0.475146 -0.106492,-0.98165 -0.914497,-2.051844 -1.671226,-2.213523 -1.97145,-3.143952 -1.944867,-6.027354 0.03529,-3.827687 1.332978,-8.190134 2.50335,-8.415527 0.59548,-0.114679 2.483195,1.650458 2.707914,2.532079 0.101509,0.39824 0.27764,1.617041 0.391402,2.708448 0.113761,1.091406 0.295148,2.192734 0.403081,2.447395 0.136122,0.32117 0.07591,0.463021 -0.196543,0.463021 -0.216032,0 -0.542955,0.180944 -0.726496,0.402097 -0.75722,0.912393 1.235389,6.248854 3.401679,9.11013 1.368847,1.807999 2.713426,2.718621 5.071955,3.435002 1.017197,0.308964 1.849449,0.659345 1.849449,0.778626 0,0.11928 -0.982265,0.354129 -2.182812,0.521888 -2.405897,0.336189 -2.262996,0.33514 -3.816244,0.02802 z m 16.007805,-0.511741 c -1.33379,-0.402691 -1.372302,-0.546048 -0.418404,-1.557473 1.268411,-1.344904 3.231024,-3.966143 3.76726,-5.031498 0.315635,-0.627082 0.402369,-1.220709 0.289935,-1.984375 -0.14775,-1.003536 -0.09893,-1.124389 0.617827,-1.529546 0.834096,-0.471483 1.333183,-1.724229 1.353162,-3.396542 0.0098,-0.82113 0.135839,-0.985992 1.112431,-1.455209 2.113919,-1.01566 3.181,-3.170187 2.738452,-5.529168 -0.112195,-0.598056 -0.663412,-1.466951 -1.536973,-2.422766 -1.140979,-1.248413 -1.311567,-1.56142 -1.051052,-1.928553 0.171043,-0.241044 0.557285,-0.893579 0.858315,-1.450075 0.695216,-1.285208 0.693646,-1.286492 3.622988,2.963909 2.695752,3.911468 4.029399,6.743466 4.03408,8.566366 0.0041,1.582238 -1.779356,6.539861 -3.205832,8.911708 -0.563349,0.936697 -1.024271,1.788681 -1.024271,1.893295 0,0.35668 -2.479174,1.833563 -3.55622,2.118496 -0.590694,0.156268 -1.371645,0.555257 -1.735447,0.886643 -0.363802,0.331386 -1.066178,0.737782 -1.560836,0.903103 -1.017183,0.339956 -3.246006,0.361535 -4.305415,0.04169 z m -9.615071,-0.49844 c -0.289283,-0.275584 -1.418938,-0.763929 -2.510344,-1.085213 -1.735318,-0.510837 -2.167129,-0.772245 -3.440471,-2.08278 -1.606057,-1.652967 -2.834398,-3.780053 -3.679082,-6.37097 -0.984461,-3.019654 -0.474933,-4.320071 0.86254,-2.201376 1.330009,2.10687 2.288263,2.181553 2.288263,0.178338 v -1.223448 l 1.369474,1.231276 c 0.753211,0.677201 1.90849,1.547159 2.567288,1.93324 0.658798,0.386082 1.747052,1.271791 2.418344,1.968244 1.335014,1.385054 2.120868,1.587895 2.738056,0.706737 0.460922,-0.658058 0.340896,-1.088455 -0.663905,-2.380681 l -0.743243,-0.955848 1.428798,-0.147465 c 1.810733,-0.186884 3.812024,-1.050992 4.566608,-1.971749 l 0.584545,-0.713273 1.521318,1.681111 c 0.836725,0.924612 1.8967,1.837956 2.355499,2.029654 0.666759,0.27859 0.866495,0.547676 0.995189,1.340724 0.196716,1.212215 -0.387547,2.353697 -2.617247,5.113354 -2.051956,2.539666 -3.522239,3.237558 -6.595097,3.130465 -1.16623,-0.04064 -2.300452,0.01489 -2.520492,0.12341 -0.248179,0.122398 -0.599763,0.0071 -0.926041,-0.30375 z m 26.326099,-7.332478 c -0.0018,-1.785207 -0.156827,-3.732045 -0.357126,-4.484136 -0.372636,-1.399194 -0.238256,-3.537111 0.282327,-4.491672 0.158724,-0.291042 0.594392,-1.646351 0.968152,-3.011798 0.37376,-1.365447 0.731034,-2.534102 0.793943,-2.597011 0.179251,-0.179251 3.143568,1.396751 3.805948,2.02346 0.363841,0.344248 0.595313,0.876678 0.595313,1.369337 0,1.000679 -1.429374,3.920402 -2.573812,5.25742 -1.093548,1.277566 -1.392907,2.085788 -1.403353,3.788837 -0.0048,0.784315 -0.174782,1.591796 -0.396875,1.885429 -0.213653,0.282475 -0.38846,0.886799 -0.38846,1.342942 0,0.542544 -0.228747,1.044247 -0.661459,1.450759 l -0.661458,0.621408 z m -41.680421,2.305003 c -1.015957,-0.61955 -3.920207,-3.795124 -4.75977,-5.204445 -0.942793,-1.582604 -1.012832,-4.165725 -0.145959,-5.383136 0.516372,-0.725178 0.579383,-0.985161 0.333998,-1.378085 -0.166343,-0.266358 -0.231769,-0.837655 -0.14539,-1.269549 0.09397,-0.469837 -0.02749,-1.268488 -0.302381,-1.98827 -1.34491,-3.521598 1.386991,-8.932003 5.543231,-10.978113 1.299122,-0.639556 2.011603,-0.832234 2.851392,-0.771112 1.040547,0.07573 1.199573,0.196429 2.254168,1.710842 0.993525,1.426715 1.101401,1.716789 0.867373,2.332328 -0.146997,0.386633 -0.267268,1.152445 -0.267268,1.701806 0,0.612074 -0.305494,1.553067 -0.788957,2.430171 -0.433926,0.787234 -0.792937,1.609929 -0.797801,1.82821 -0.02152,0.965781 -0.43653,1.143213 -1.256311,0.537123 -1.044845,-0.772488 -1.894001,-0.612386 -2.640392,0.497825 -1.759954,2.617827 -2.498031,9.52216 -1.275283,11.929636 0.258683,0.509323 0.931548,1.544451 1.495255,2.300285 1.450816,1.945295 0.931563,2.861595 -0.965905,1.704484 z m 15.728256,-2.974417 c -0.422186,-0.451952 -0.767612,-0.92122 -0.767612,-1.042818 0,-0.121598 -0.718097,-0.603829 -1.595772,-1.071624 -1.948052,-1.038301 -4.886523,-4.039563 -4.600611,-4.698921 0.438532,-1.011325 0.915506,-3.781817 1.054189,-6.12324 0.174433,-2.944975 0.303021,-3.704166 0.627394,-3.704166 0.305665,0 0.651237,1.636861 1.337993,6.337627 0.304171,2.082016 0.721025,4.110337 0.926343,4.507378 0.205319,0.397042 1.390979,1.883638 2.634802,3.303548 1.243823,1.41991 2.261496,2.74642 2.261496,2.947801 0,0.652394 -1.09025,0.387941 -1.878222,-0.455585 z m 10.825416,-2.334738 c -0.357043,-0.28085 -1.20853,-1.165376 -1.892194,-1.965612 l -1.243024,-1.454976 0.695699,-2.069284 c 0.80095,-2.382344 0.754831,-4.301369 -0.15268,-6.352948 -0.525814,-1.188688 -0.525817,-1.192017 -0.0015,-1.329134 0.289109,-0.0756 0.524939,-0.272403 0.524066,-0.437332 -8.72e-4,-0.164929 -1.042669,-1.192839 -2.315104,-2.284245 -1.914151,-1.641826 -2.214528,-1.998476 -1.74007,-2.066058 1.097604,-0.156344 3.186517,1.193681 4.715855,3.047768 0.803114,0.973653 1.608442,2.131692 1.789619,2.573421 0.181176,0.441728 0.716364,1.565862 1.189307,2.498075 0.472943,0.932213 0.859896,2.020226 0.859896,2.417806 0,0.397581 0.178594,1.229063 0.396875,1.847738 0.723834,2.051564 0.450884,5.246249 -0.50263,5.882928 -0.535794,0.357759 -1.668495,0.207579 -2.324134,-0.308147 z m -18.937592,-0.878427 c -0.146084,-0.181901 -0.57976,-0.956543 -0.963724,-1.721427 -0.956891,-1.906195 -1.138232,-3.469616 -0.573853,-4.947423 0.481953,-1.261976 0.610525,-2.524937 0.307035,-3.015994 -0.10274,-0.166237 -0.0013,-0.567075 0.225403,-0.890751 0.311112,-0.444174 0.412203,-1.285552 0.412203,-3.430738 0,-2.601575 0.04628,-2.867004 0.546547,-3.13474 0.300601,-0.160876 0.766997,-0.806792 1.036436,-1.435369 0.26944,-0.628577 0.629181,-1.228953 0.799424,-1.334169 1.11106,-0.686673 0.685547,2.457336 -0.721683,5.332331 l -0.926097,1.892033 0.140309,5.780884 c 0.07717,3.179486 0.223415,6.108306 0.324989,6.508488 0.194058,0.764551 -0.137571,0.981384 -0.606989,0.396875 z m 7.100986,-0.570831 c -0.352249,-0.376119 -0.590374,-0.722449 -0.529166,-0.769623 0.06121,-0.04717 1.659098,0.04951 3.550869,0.214855 3.225522,0.281915 3.390185,0.322977 2.645834,0.659796 -0.436563,0.197545 -1.74625,0.408594 -2.910417,0.468998 -2.002824,0.103919 -2.151113,0.07305 -2.75712,-0.574026 z m 0.201161,-1.409922 c -1.469313,-0.09297 -1.505577,-0.114632 -1.918229,-1.145951 -0.556722,-1.391385 -0.542892,-1.526068 0.318449,-3.101152 l 0.739052,-1.351464 1.128948,1.310628 c 1.828125,2.122324 3.510976,2.607756 4.847429,1.398282 0.449448,-0.406745 0.501409,-0.375719 0.877257,0.523811 0.219731,0.525891 0.399511,1.317177 0.399511,1.758414 v 0.802248 l -2.447396,-0.05003 c -1.346067,-0.02752 -3.121327,-0.09267 -3.945021,-0.144786 z m 7.580757,-3.500509 c -0.0022,-2.846383 0.0074,-2.892469 0.529167,-2.539239 0.42785,0.289628 0.524026,0.62732 0.493359,1.732279 -0.03942,1.420266 -0.568119,3.709509 -0.856189,3.707246 -0.09023,-7.09e-4 -0.16508,-1.305838 -0.166337,-2.900286 z m 7.431194,0.518182 c -0.245317,-0.874304 -0.374287,-1.705729 -0.286599,-1.847611 0.08769,-0.141881 -0.197357,-0.944589 -0.633434,-1.783794 -0.436076,-0.839205 -1.092647,-2.180671 -1.459047,-2.981036 -0.366399,-0.800365 -1.399005,-2.264329 -2.29468,-3.253255 -0.895675,-0.988926 -1.584339,-1.839064 -1.530366,-1.889196 0.05397,-0.05013 0.87204,0.02473 1.817926,0.166368 2.258321,0.338154 3.96875,1.307651 3.96875,2.249548 0,0.512066 0.547524,1.233872 2.116666,2.790419 l 2.116667,2.099677 -9.89e-4,1.630199 c -7.04e-4,1.159646 -0.152748,1.879103 -0.526748,2.492513 -0.509065,0.834933 -1.942372,1.912803 -2.546252,1.914822 -0.162725,5.43e-4 -0.496577,-0.714351 -0.741894,-1.588654 z m -38.963051,0.776783 c -1.621137,-0.513773 -1.641504,-0.532545 -2.208657,-2.03566 -1.473766,-3.905901 -1.644625,-8.279548 -0.366847,-9.390562 0.73592,-0.639874 0.820283,-1.304716 0.227938,-1.796319 -0.365808,-0.303594 -0.333576,-0.4145 0.287955,-0.990817 0.584476,-0.541956 0.672209,-0.796408 0.532102,-1.543242 -0.375227,-2.000131 2.379302,-5.652432 5.072209,-6.725374 0.84211,-0.335524 2.305015,-0.995269 3.250901,-1.4661 1.957249,-0.974256 3.44997,-1.429203 4.696354,-1.431341 1.024512,-0.0018 1.092497,0.441058 0.385294,2.50958 l -0.45144,1.320432 -1.152888,-0.08594 c -0.962355,-0.07174 -1.278205,0.03412 -1.911157,0.640523 -1.052113,1.007988 -1.672971,2.995603 -1.453205,4.652286 0.169204,1.275517 0.142264,1.34535 -1.015925,2.633535 -1.428162,1.588461 -2.369205,3.490436 -2.828916,5.717623 -0.317249,1.536994 -0.299972,1.74317 0.259095,3.092019 0.491127,1.184934 0.543194,1.549508 0.289097,2.024292 -0.238384,0.445426 -0.235558,0.718005 0.01225,1.181036 0.26757,0.49996 0.240064,0.740939 -0.162329,1.422135 -0.576861,0.976548 -1.107019,1.018187 -3.46183,0.271898 z m 30.226272,-0.842815 c -0.282767,-0.61207 -0.951845,-1.591264 -1.48684,-2.175986 -0.534995,-0.584722 -1.052393,-1.32027 -1.149771,-1.634551 -0.09738,-0.31428 -0.351036,-0.715812 -0.563682,-0.892292 -1.160415,-0.96306 0.395272,-0.905176 2.445699,0.091 0.991928,0.481916 1.142726,0.680524 1.389153,1.829576 0.320104,1.492592 0.368466,3.911928 0.078,3.901937 -0.109141,-0.0038 -0.429792,-0.507611 -0.712558,-1.119682 z M -42.21179,-70.5165 c -0.858224,-0.583179 -1.786123,-1.714743 -1.406113,-1.714743 0.07466,0 0.802956,0.327234 1.618443,0.727186 1.382824,0.678201 1.505171,0.69646 1.816232,0.271059 0.297205,-0.406452 0.388496,-0.413591 0.838261,-0.06555 0.491865,0.380617 0.488808,0.404063 -0.11989,0.919565 -0.830741,0.70355 -1.563152,0.666884 -2.746933,-0.137517 z m 23.354248,-1.037772 c -0.294698,-0.687505 -0.535816,-1.319042 -0.535816,-1.403415 0,-0.333213 -4.357971,-6.607751 -5.214527,-7.507794 -0.789285,-0.829357 -0.944323,-1.216424 -1.153044,-2.878689 -0.314932,-2.50813 -0.597468,-3.484593 -1.408864,-4.869136 -0.807558,-1.377993 -1.566548,-1.907359 -3.400516,-2.371728 -1.052787,-0.26657 -1.474636,-0.522544 -1.735923,-1.053344 -0.202084,-0.410529 -0.565012,-0.701199 -0.875511,-0.701199 -0.29169,0 -0.45676,-0.119062 -0.366823,-0.264583 0.456506,-0.738643 7.357646,0.167053 10.042659,1.317984 1.441267,0.617799 2.849871,2.069625 3.456211,3.562261 0.852362,2.098271 1.071865,2.396057 1.988184,2.697253 0.691654,0.227347 0.897993,0.431481 0.839338,0.830368 -0.04639,0.31545 0.345939,1.018474 0.972098,1.741945 0.57743,0.667168 1.124603,1.448487 1.21594,1.736265 0.09407,0.296393 -0.137991,1.360506 -0.535283,2.454515 -0.385743,1.062206 -1.091864,3.216636 -1.569157,4.787622 -0.477293,1.570987 -0.938758,2.927291 -1.025478,3.014011 -0.08672,0.08672 -0.398789,-0.404832 -0.693488,-1.092336 z m -31.711181,-2.661346 c 0.09187,-3.517671 0.135278,-3.770773 0.862214,-5.027084 0.421011,-0.727604 0.954562,-1.706843 1.185668,-2.176087 0.231105,-0.469243 0.608036,-0.91724 0.837624,-0.995548 0.229588,-0.07831 0.97308,-0.914771 1.652204,-1.858809 0.754601,-1.048955 1.425165,-1.716431 1.724373,-1.716431 0.269281,0 0.699964,-0.232448 0.957074,-0.516551 0.620704,-0.685871 2.891406,-1.132259 4.199565,-0.825576 1.239814,0.290661 1.327528,0.371752 1.11759,1.033208 -0.212682,0.670102 -2.068612,1.542839 -4.401091,2.06958 -1.003507,0.22662 -2.358012,0.765382 -3.010012,1.197249 -1.996867,1.32267 -4.112622,4.662184 -4.112006,6.490404 5.33e-4,1.582167 -0.577825,5.473478 -0.856875,5.765228 -0.16138,0.168725 -0.218017,-1.077434 -0.156328,-3.439583 z m 3.803014,1.327524 c -0.09968,-0.79783 -0.111743,-1.56305 -0.0268,-1.700489 0.187938,-0.30409 1.983819,-0.921188 2.162077,-0.74293 0.172674,0.172674 -1.50485,3.89402 -1.755363,3.89402 -0.10927,0 -0.280231,-0.65277 -0.379914,-1.450601 z m 4.354103,0.5734 c -1.654917,-0.995439 -1.903821,-1.549501 -0.970744,-2.160877 0.873661,-0.572444 1.908631,-0.289934 2.248277,0.613702 0.378763,1.007704 0.59451,2.424568 0.368997,2.423282 -0.105503,-6.02e-4 -0.846441,-0.39485 -1.64653,-0.876107 z m -11.391878,-0.601069 c -0.353433,-0.912396 -0.177173,-2.842984 0.381675,-4.180495 0.541986,-1.297155 1.07673,-1.273433 0.819795,0.03637 -0.107046,0.545703 -0.225139,1.74592 -0.262428,2.667149 -0.08018,1.980815 -0.492595,2.629489 -0.939042,1.476976 z m 17.104975,-1.452146 c -0.859344,-0.570459 -2.201271,-1.238571 -2.98206,-1.484693 -1.386103,-0.43693 -1.447761,-0.433821 -2.611822,0.131724 -1.403678,0.681959 -1.442633,0.687824 -1.442633,0.217209 0,-0.383784 1.896572,-0.990091 4.612655,-1.474602 2.884586,-0.514568 2.914837,-0.502754 3.693584,1.44252 1.061945,2.652692 1.022172,2.689274 -1.269724,1.167842 z m -10.618681,-2.030522 c -0.09161,-0.545703 -0.282425,-1.37185 -0.424037,-1.835882 -0.317589,-1.040676 0.08706,-1.911507 1.537,-3.30774 1.267978,-1.221011 2.097374,-1.537107 4.033171,-1.537107 h 1.529519 l 2.534755,2.461667 2.534754,2.461667 -2.907718,0.459237 c -1.599245,0.252581 -4.165441,0.871237 -5.702657,1.374792 -1.537216,0.503554 -2.833928,0.915554 -2.881583,0.915554 -0.04765,0 -0.161596,-0.446485 -0.253204,-0.992188 z m 18.72706,-2.443806 c -0.180525,-0.289067 -0.328228,-0.767939 -0.328228,-1.06416 0,-0.873932 -2.104492,-2.034644 -4.048159,-2.232721 -1.907997,-0.194442 -7.328924,-1.450677 -7.328924,-1.69839 0,-0.09273 0.543358,-0.456853 1.207462,-0.80916 0.666999,-0.353841 1.388544,-0.990729 1.61202,-1.422885 0.378679,-0.732285 0.36867,-0.818214 -0.156479,-1.343363 -0.47585,-0.47585 -0.874698,-0.561036 -2.626828,-0.561036 -1.759077,0 -2.21957,0.09919 -3.101505,0.668035 -0.569641,0.36742 -1.273837,0.797096 -1.564878,0.954837 -0.291042,0.15774 -1.068101,0.979347 -1.726797,1.825793 -1.480408,1.902369 -1.947999,2.131509 -1.704857,0.835453 0.394386,-2.10226 -0.550152,-2.780729 -1.891393,-1.3586 l -0.894662,0.948618 v -1.749171 c 0,-2.573918 0.985047,-4.197402 3.439584,-5.668875 1.153543,-0.691539 1.76684,-0.697713 2.778125,-0.02796 1.11973,0.741568 1.65345,0.671399 4.147505,-0.545279 2.516419,-1.227588 3.323728,-1.244064 5.047955,-0.103024 0.828198,0.548075 1.241725,0.660158 1.947288,0.527793 0.765691,-0.143644 0.895793,-0.09416 0.895793,0.340708 0,0.676373 0.445115,0.994651 1.710649,1.223194 3.021275,0.545613 4.426041,2.63778 4.81321,7.168477 0.16369,1.915523 -0.133797,2.969267 -1.172813,4.154277 -0.516885,0.589513 -0.651846,0.581504 -1.054068,-0.06256 z m -24.210878,-5.878371 c -0.402385,-0.684515 -0.994424,-1.428656 -1.315643,-1.653646 -0.917937,-0.642948 -2.529333,-0.496649 -4.273888,0.388029 -0.857252,0.434719 -1.675667,0.790398 -1.818701,0.790398 -0.433509,0 -0.06832,-2.744141 0.513723,-3.860316 0.524041,-1.004938 0.579651,-1.034565 1.94761,-1.037591 1.243382,-0.0028 1.458475,-0.08629 1.838074,-0.713862 0.236449,-0.390911 0.642365,-1.611942 0.902035,-2.713402 0.406318,-1.72351 0.654786,-2.202514 1.782571,-3.43649 1.34177,-1.46811 2.074059,-1.837116 4.25275,-2.14299 0.684661,-0.0961 1.454369,-0.32798 1.710462,-0.51524 0.291658,-0.21327 0.672714,-0.26174 1.019907,-0.12974 0.330123,0.12552 1.136404,0.053 1.993704,-0.17934 3.154947,-0.855002 7.89983,0.10412 9.493252,1.918924 0.931655,1.061096 0.90985,0.918982 0.484788,3.159708 -0.289529,1.526263 -0.392295,1.712839 -0.943435,1.712839 -0.340183,0 -0.861442,-0.130011 -1.158355,-0.288914 -1.080248,-0.578132 -2.651321,-0.359339 -4.644286,0.646778 -2.222352,1.121919 -2.618513,1.162358 -3.911785,0.399309 -0.83496,-0.492639 -1.087082,-0.52733 -1.951097,-0.268464 -1.405367,0.421058 -3.382875,2.046033 -4.212331,3.461392 -0.566845,0.967248 -0.733575,1.651508 -0.842249,3.456586 l -0.135497,2.250605 z m 34.694942,-0.91166 c -0.237875,-0.06587 -0.681888,-0.803743 -0.986697,-1.639709 -0.702807,-1.927516 -2.114056,-3.582123 -3.771724,-4.422127 -1.969783,-0.998165 -5.565977,-1.775002 -8.367968,-1.80762 -2.707225,-0.03151 -2.637326,0.03009 -2.152149,-1.896725 0.22762,-0.90396 0.219164,-1.362644 -0.0365,-1.979873 -0.471881,-1.139221 -2.142825,-2.476396 -3.766556,-3.014208 -1.975775,-0.6544 -5.285506,-0.80543 -7.070878,-0.32265 -0.995922,0.2693 -1.600667,0.31109 -1.93242,0.13354 -0.445148,-0.23823 -0.424923,-0.30183 0.258931,-0.81416 0.407987,-0.30566 1.218045,-1.00552 1.800129,-1.55523 1.210402,-1.14309 1.808024,-1.40817 4.119982,-1.8274 0.920477,-0.16692 2.689327,-0.81873 3.977475,-1.46567 3.130637,-1.5723 4.100278,-1.70842 5.659761,-0.7945 0.667022,0.3909 1.619508,1.06785 2.116634,1.50433 0.879043,0.77181 0.955437,0.78853 2.781578,0.60859 l 1.877711,-0.18503 -0.172889,0.68885 c -0.230606,0.9188 0.584633,2.21156 2.300735,3.64836 1.434177,1.200762 2.115682,2.170628 3.137587,4.465173 0.356453,0.800365 1.039382,2.036599 1.517619,2.747186 0.478238,0.710588 0.928179,1.544026 0.99987,1.852084 0.07169,0.308058 -0.08231,1.810261 -0.342231,3.33823 -0.495257,2.911448 -0.631588,3.103107 -1.948,2.738559 z m -52.354342,-2.748843 c -0.303504,-1.265144 -0.284591,-1.38405 0.370485,-2.329326 0.379673,-0.547868 0.690315,-1.309396 0.690315,-1.692283 0,-1.189895 0.51288,-2.139413 1.843667,-3.413263 0.705271,-0.675097 1.274585,-1.389472 1.265141,-1.5875 -0.06623,-1.388829 0.05577,-1.612925 0.793796,-1.458124 2.325486,0.487766 2.47616,0.492689 2.920854,0.09542 0.248921,-0.222371 0.74489,-0.444931 1.102154,-0.494581 0.514135,-0.0714 0.76498,-0.39335 1.203099,-1.543892 0.631908,-1.65943 1.269409,-2.10848 3.001702,-2.11436 1.05867,-0.004 1.300814,0.13817 3.042709,1.78129 1.040877,0.98185 1.938468,1.811642 1.994647,1.843982 0.05618,0.0323 -0.568899,0.783608 -1.389063,1.669482 -0.820163,0.885874 -1.491206,1.722957 -1.491206,1.860183 0,0.137226 -0.45464,0.249502 -1.010311,0.249502 -1.490791,0 -3.277188,0.603842 -7.020542,2.3731 -3.545423,1.675707 -5.160935,2.989323 -6.273782,5.101379 -0.287532,0.545703 -0.568022,0.992188 -0.623311,0.992188 -0.05529,0 -0.244448,-0.59994 -0.420354,-1.333201 z"
       style="display:inline;fill:#ffffff;fill-opacity:1;stroke:#ffffff;stroke-width:2.97442;stroke-dasharray:none;stroke-opacity:1"
       id="path3"
       inkscape:label="Ombra"
       transform="matrix(1.0033312,0,0,1.0138942,178.49843,109.10177)" /><path
       d="m -49.555858,-44.573335 c -0.874358,-0.566948 -1.688886,-0.90446 -2.040643,-0.845573 -0.359155,0.06013 -0.799844,-0.130222 -1.14016,-0.492471 -0.392839,-0.418158 -0.996083,-0.640413 -2.067088,-0.761583 -1.634694,-0.184945 -2.901736,-0.813906 -3.607694,-1.790865 -0.90248,-1.248922 -4.648652,-8.329643 -5.062081,-9.567949 l -0.4269,-1.278657 0.739493,-0.771864 c 0.406721,-0.424525 0.854541,-0.771864 0.995155,-0.771864 0.140615,0 0.876878,0.587519 1.636141,1.305598 0.979925,0.926773 1.793428,1.426935 2.80369,1.723781 1.761953,0.517714 1.712251,0.480198 3.089828,2.332267 2.192868,2.948181 4.261482,3.683097 8.816033,3.132068 1.510585,-0.182757 2.953262,-0.4422 3.205949,-0.576541 0.252687,-0.134341 1.41737,-0.244256 2.588185,-0.244256 1.288514,0 2.501637,-0.1558 3.073452,-0.394719 0.87773,-0.366739 0.992191,-0.357361 1.614683,0.132291 0.368493,0.289856 0.821351,0.527012 1.006352,0.527012 0.203041,0 0.408566,0.524956 0.51852,1.324414 0.144845,1.05315 0.08219,1.481984 -0.305902,2.093723 -0.590628,0.930993 -2.224191,2.263668 -3.663054,2.988354 -0.582084,0.293167 -1.688587,1.014172 -2.458897,1.602235 l -1.400564,1.069205 -3.229645,0.104487 -3.229644,0.104487 z m 14.155209,-0.0094 c -0.145521,-0.05683 -0.770599,-0.233402 -1.389063,-0.39237 -0.618463,-0.158969 -1.122545,-0.373742 -1.120181,-0.477273 0.0024,-0.103532 0.83864,-0.774092 1.858392,-1.490135 2.331549,-1.63715 2.982089,-2.62766 2.858811,-4.352811 l -0.09129,-1.277537 1.094929,0.123763 c 1.366466,0.154456 3.520803,-0.533285 4.313434,-1.377002 0.324267,-0.345166 1.025977,-0.706069 1.559357,-0.802007 1.34433,-0.241801 3.642837,-1.812751 4.16972,-2.849861 0.241039,-0.474457 0.831422,-1.517494 1.311961,-2.317858 0.48054,-0.800365 1.195432,-2.377943 1.58865,-3.50573 0.393218,-1.127786 0.809998,-2.05052 0.926178,-2.05052 0.390712,0 0.55863,2.745861 0.469221,7.672916 -0.100634,5.545725 -0.268865,6.129577 -2.309241,8.014311 -0.705103,0.651317 -1.085667,1.230978 -1.085667,1.653646 0,0.511039 -0.136725,0.650794 -0.636685,0.650794 -0.350177,0 -1.562392,0.625078 -2.693811,1.389062 -2.028233,1.369554 -2.081533,1.387868 -3.795085,1.303979 -2.81873,-0.137995 -5.667771,-0.119963 -6.235877,0.03947 -0.291042,0.08168 -0.64823,0.102001 -0.79375,0.04517 z m -25.532292,-5.936567 c -0.7203,-0.42176 -3.626437,-1.074434 -7.197335,-1.61641 -1.93506,-0.293696 -3.722944,-0.596404 -3.973076,-0.672686 -1.115505,-0.34019 -1.05426,-2.950296 0.138518,-5.903317 l 0.621409,-1.538454 -1.984124,-0.05252 c -1.091268,-0.02888 -2.177929,-0.156237 -2.414803,-0.283008 -0.236875,-0.126772 -0.781894,-0.923647 -1.211156,-1.770834 l -0.780475,-1.540341 0.0061,-5.027083 0.0061,-5.027084 2.63972,-1.3727 c 1.451846,-0.754985 2.705548,-1.380064 2.786005,-1.389063 0.08046,-0.009 0.346575,1.022595 0.591374,2.292432 0.244798,1.269837 0.774283,2.96405 1.176631,3.764918 0.697889,1.389137 0.804575,1.477508 2.319043,1.920945 0.873125,0.255652 1.851202,0.466439 2.173504,0.468416 0.745317,0.0046 1.133788,0.731039 1.133788,2.120261 0,1.255434 0.249118,1.815767 1.490184,3.35182 1.064628,1.317678 1.084518,1.487649 0.238917,2.041708 -1.633997,1.070636 -1.430417,2.16975 1.316958,7.110171 0.944042,1.697609 1.716441,3.150628 1.716441,3.228931 0,0.20622 -0.337369,0.161122 -0.79375,-0.106106 z m 10.934277,-2.409099 c -1.776624,-0.351292 -2.620917,-0.935375 -4.184151,-2.894601 -0.809528,-1.014594 -1.70805,-1.971116 -1.996715,-2.125605 -0.384722,-0.205897 -0.482572,-0.449323 -0.366505,-0.911771 0.119254,-0.475146 -0.106492,-0.98165 -0.914497,-2.051844 -1.671226,-2.213523 -1.97145,-3.143952 -1.944867,-6.027354 0.03529,-3.827687 1.332978,-8.190134 2.50335,-8.415527 0.59548,-0.114679 2.483195,1.650458 2.707914,2.532079 0.101509,0.39824 0.27764,1.617041 0.391402,2.708448 0.113761,1.091406 0.295148,2.192734 0.403081,2.447395 0.136122,0.32117 0.07591,0.463021 -0.196543,0.463021 -0.216032,0 -0.542955,0.180944 -0.726496,0.402097 -0.75722,0.912393 1.235389,6.248854 3.401679,9.11013 1.368847,1.807999 2.713426,2.718621 5.071955,3.435002 1.017197,0.308964 1.849449,0.659345 1.849449,0.778626 0,0.11928 -0.982265,0.354129 -2.182812,0.521888 -2.405897,0.336189 -2.262996,0.33514 -3.816244,0.02802 z m 16.007805,-0.511741 c -1.33379,-0.402691 -1.372302,-0.546048 -0.418404,-1.557473 1.268411,-1.344904 3.231024,-3.966143 3.76726,-5.031498 0.315635,-0.627082 0.402369,-1.220709 0.289935,-1.984375 -0.14775,-1.003536 -0.09893,-1.124389 0.617827,-1.529546 0.834096,-0.471483 1.333183,-1.724229 1.353162,-3.396542 0.0098,-0.82113 0.135839,-0.985992 1.112431,-1.455209 2.113919,-1.01566 3.181,-3.170187 2.738452,-5.529168 -0.112195,-0.598056 -0.663412,-1.466951 -1.536973,-2.422766 -1.140979,-1.248413 -1.311567,-1.56142 -1.051052,-1.928553 0.171043,-0.241044 0.557285,-0.893579 0.858315,-1.450075 0.695216,-1.285208 0.693646,-1.286492 3.622988,2.963909 2.695752,3.911468 4.029399,6.743466 4.03408,8.566366 0.0041,1.582238 -1.779356,6.539861 -3.205832,8.911708 -0.563349,0.936697 -1.024271,1.788681 -1.024271,1.893295 0,0.35668 -2.479174,1.833563 -3.55622,2.118496 -0.590694,0.156268 -1.371645,0.555257 -1.735447,0.886643 -0.363802,0.331386 -1.066178,0.737782 -1.560836,0.903103 -1.017183,0.339956 -3.246006,0.361535 -4.305415,0.04169 z m -9.615071,-0.49844 c -0.289283,-0.275584 -1.418938,-0.763929 -2.510344,-1.085213 -1.735318,-0.510837 -2.167129,-0.772245 -3.440471,-2.08278 -1.606057,-1.652967 -2.834398,-3.780053 -3.679082,-6.37097 -0.984461,-3.019654 -0.474933,-4.320071 0.86254,-2.201376 1.330009,2.10687 2.288263,2.181553 2.288263,0.178338 v -1.223448 l 1.369474,1.231276 c 0.753211,0.677201 1.90849,1.547159 2.567288,1.93324 0.658798,0.386082 1.747052,1.271791 2.418344,1.968244 1.335014,1.385054 2.120868,1.587895 2.738056,0.706737 0.460922,-0.658058 0.340896,-1.088455 -0.663905,-2.380681 l -0.743243,-0.955848 1.428798,-0.147465 c 1.810733,-0.186884 3.812024,-1.050992 4.566608,-1.971749 l 0.584545,-0.713273 1.521318,1.681111 c 0.836725,0.924612 1.8967,1.837956 2.355499,2.029654 0.666759,0.27859 0.866495,0.547676 0.995189,1.340724 0.196716,1.212215 -0.387547,2.353697 -2.617247,5.113354 -2.051956,2.539666 -3.522239,3.237558 -6.595097,3.130465 -1.16623,-0.04064 -2.300452,0.01489 -2.520492,0.12341 -0.248179,0.122398 -0.599763,0.0071 -0.926041,-0.30375 z m 26.326099,-7.332478 c -0.0018,-1.785207 -0.156827,-3.732045 -0.357126,-4.484136 -0.372636,-1.399194 -0.238256,-3.537111 0.282327,-4.491672 0.158724,-0.291042 0.594392,-1.646351 0.968152,-3.011798 0.37376,-1.365447 0.731034,-2.534102 0.793943,-2.597011 0.179251,-0.179251 3.143568,1.396751 3.805948,2.02346 0.363841,0.344248 0.595313,0.876678 0.595313,1.369337 0,1.000679 -1.429374,3.920402 -2.573812,5.25742 -1.093548,1.277566 -1.392907,2.085788 -1.403353,3.788837 -0.0048,0.784315 -0.174782,1.591796 -0.396875,1.885429 -0.213653,0.282475 -0.38846,0.886799 -0.38846,1.342942 0,0.542544 -0.228747,1.044247 -0.661459,1.450759 l -0.661458,0.621408 z m -41.680421,2.305003 c -1.015957,-0.61955 -3.920207,-3.795124 -4.75977,-5.204445 -0.942793,-1.582604 -1.012832,-4.165725 -0.145959,-5.383136 0.516372,-0.725178 0.579383,-0.985161 0.333998,-1.378085 -0.166343,-0.266358 -0.231769,-0.837655 -0.14539,-1.269549 0.09397,-0.469837 -0.02749,-1.268488 -0.302381,-1.98827 -1.34491,-3.521598 1.386991,-8.932003 5.543231,-10.978113 1.299122,-0.639556 2.011603,-0.832234 2.851392,-0.771112 1.040547,0.07573 1.199573,0.196429 2.254168,1.710842 0.993525,1.426715 1.101401,1.716789 0.867373,2.332328 -0.146997,0.386633 -0.267268,1.152445 -0.267268,1.701806 0,0.612074 -0.305494,1.553067 -0.788957,2.430171 -0.433926,0.787234 -0.792937,1.609929 -0.797801,1.82821 -0.02152,0.965781 -0.43653,1.143213 -1.256311,0.537123 -1.044845,-0.772488 -1.894001,-0.612386 -2.640392,0.497825 -1.759954,2.617827 -2.498031,9.52216 -1.275283,11.929636 0.258683,0.509323 0.931548,1.544451 1.495255,2.300285 1.450816,1.945295 0.931563,2.861595 -0.965905,1.704484 z m 15.728256,-2.974417 c -0.422186,-0.451952 -0.767612,-0.92122 -0.767612,-1.042818 0,-0.121598 -0.718097,-0.603829 -1.595772,-1.071624 -1.948052,-1.038301 -4.886523,-4.039563 -4.600611,-4.698921 0.438532,-1.011325 0.915506,-3.781817 1.054189,-6.12324 0.174433,-2.944975 0.303021,-3.704166 0.627394,-3.704166 0.305665,0 0.651237,1.636861 1.337993,6.337627 0.304171,2.082016 0.721025,4.110337 0.926343,4.507378 0.205319,0.397042 1.390979,1.883638 2.634802,3.303548 1.243823,1.41991 2.261496,2.74642 2.261496,2.947801 0,0.652394 -1.09025,0.387941 -1.878222,-0.455585 z m 10.825416,-2.334738 c -0.357043,-0.28085 -1.20853,-1.165376 -1.892194,-1.965612 l -1.243024,-1.454976 0.695699,-2.069284 c 0.80095,-2.382344 0.754831,-4.301369 -0.15268,-6.352948 -0.525814,-1.188688 -0.525817,-1.192017 -0.0015,-1.329134 0.289109,-0.0756 0.524939,-0.272403 0.524066,-0.437332 -8.72e-4,-0.164929 -1.042669,-1.192839 -2.315104,-2.284245 -1.914151,-1.641826 -2.214528,-1.998476 -1.74007,-2.066058 1.097604,-0.156344 3.186517,1.193681 4.715855,3.047768 0.803114,0.973653 1.608442,2.131692 1.789619,2.573421 0.181176,0.441728 0.716364,1.565862 1.189307,2.498075 0.472943,0.932213 0.859896,2.020226 0.859896,2.417806 0,0.397581 0.178594,1.229063 0.396875,1.847738 0.723834,2.051564 0.450884,5.246249 -0.50263,5.882928 -0.535794,0.357759 -1.668495,0.207579 -2.324134,-0.308147 z m -18.937592,-0.878427 c -0.146084,-0.181901 -0.57976,-0.956543 -0.963724,-1.721427 -0.956891,-1.906195 -1.138232,-3.469616 -0.573853,-4.947423 0.481953,-1.261976 0.610525,-2.524937 0.307035,-3.015994 -0.10274,-0.166237 -0.0013,-0.567075 0.225403,-0.890751 0.311112,-0.444174 0.412203,-1.285552 0.412203,-3.430738 0,-2.601575 0.04628,-2.867004 0.546547,-3.13474 0.300601,-0.160876 0.766997,-0.806792 1.036436,-1.435369 0.26944,-0.628577 0.629181,-1.228953 0.799424,-1.334169 1.11106,-0.686673 0.685547,2.457336 -0.721683,5.332331 l -0.926097,1.892033 0.140309,5.780884 c 0.07717,3.179486 0.223415,6.108306 0.324989,6.508488 0.194058,0.764551 -0.137571,0.981384 -0.606989,0.396875 z m 7.100986,-0.570831 c -0.352249,-0.376119 -0.590374,-0.722449 -0.529166,-0.769623 0.06121,-0.04717 1.659098,0.04951 3.550869,0.214855 3.225522,0.281915 3.390185,0.322977 2.645834,0.659796 -0.436563,0.197545 -1.74625,0.408594 -2.910417,0.468998 -2.002824,0.103919 -2.151113,0.07305 -2.75712,-0.574026 z m 0.201161,-1.409922 c -1.469313,-0.09297 -1.505577,-0.114632 -1.918229,-1.145951 -0.556722,-1.391385 -0.542892,-1.526068 0.318449,-3.101152 l 0.739052,-1.351464 1.128948,1.310628 c 1.828125,2.122324 3.510976,2.607756 4.847429,1.398282 0.449448,-0.406745 0.501409,-0.375719 0.877257,0.523811 0.219731,0.525891 0.399511,1.317177 0.399511,1.758414 v 0.802248 l -2.447396,-0.05003 c -1.346067,-0.02752 -3.121327,-0.09267 -3.945021,-0.144786 z m 7.580757,-3.500509 c -0.0022,-2.846383 0.0074,-2.892469 0.529167,-2.539239 0.42785,0.289628 0.524026,0.62732 0.493359,1.732279 -0.03942,1.420266 -0.568119,3.709509 -0.856189,3.707246 -0.09023,-7.09e-4 -0.16508,-1.305838 -0.166337,-2.900286 z m 7.431194,0.518182 c -0.245317,-0.874304 -0.374287,-1.705729 -0.286599,-1.847611 0.08769,-0.141881 -0.197357,-0.944589 -0.633434,-1.783794 -0.436076,-0.839205 -1.092647,-2.180671 -1.459047,-2.981036 -0.366399,-0.800365 -1.399005,-2.264329 -2.29468,-3.253255 -0.895675,-0.988926 -1.584339,-1.839064 -1.530366,-1.889196 0.05397,-0.05013 0.87204,0.02473 1.817926,0.166368 2.258321,0.338154 3.96875,1.307651 3.96875,2.249548 0,0.512066 0.547524,1.233872 2.116666,2.790419 l 2.116667,2.099677 -9.89e-4,1.630199 c -7.04e-4,1.159646 -0.152748,1.879103 -0.526748,2.492513 -0.509065,0.834933 -1.942372,1.912803 -2.546252,1.914822 -0.162725,5.43e-4 -0.496577,-0.714351 -0.741894,-1.588654 z m -38.963051,0.776783 c -1.621137,-0.513773 -1.641504,-0.532545 -2.208657,-2.03566 -1.473766,-3.905901 -1.644625,-8.279548 -0.366847,-9.390562 0.73592,-0.639874 0.820283,-1.304716 0.227938,-1.796319 -0.365808,-0.303594 -0.333576,-0.4145 0.287955,-0.990817 0.584476,-0.541956 0.672209,-0.796408 0.532102,-1.543242 -0.375227,-2.000131 2.379302,-5.652432 5.072209,-6.725374 0.84211,-0.335524 2.305015,-0.995269 3.250901,-1.4661 1.957249,-0.974256 3.44997,-1.429203 4.696354,-1.431341 1.024512,-0.0018 1.092497,0.441058 0.385294,2.50958 l -0.45144,1.320432 -1.152888,-0.08594 c -0.962355,-0.07174 -1.278205,0.03412 -1.911157,0.640523 -1.052113,1.007988 -1.672971,2.995603 -1.453205,4.652286 0.169204,1.275517 0.142264,1.34535 -1.015925,2.633535 -1.428162,1.588461 -2.369205,3.490436 -2.828916,5.717623 -0.317249,1.536994 -0.299972,1.74317 0.259095,3.092019 0.491127,1.184934 0.543194,1.549508 0.289097,2.024292 -0.238384,0.445426 -0.235558,0.718005 0.01225,1.181036 0.26757,0.49996 0.240064,0.740939 -0.162329,1.422135 -0.576861,0.976548 -1.107019,1.018187 -3.46183,0.271898 z m 30.226272,-0.842815 c -0.282767,-0.61207 -0.951845,-1.591264 -1.48684,-2.175986 -0.534995,-0.584722 -1.052393,-1.32027 -1.149771,-1.634551 -0.09738,-0.31428 -0.351036,-0.715812 -0.563682,-0.892292 -1.160415,-0.96306 0.395272,-0.905176 2.445699,0.091 0.991928,0.481916 1.142726,0.680524 1.389153,1.829576 0.320104,1.492592 0.368466,3.911928 0.078,3.901937 -0.109141,-0.0038 -0.429792,-0.507611 -0.712558,-1.119682 z M -42.21179,-70.5165 c -0.858224,-0.583179 -1.786123,-1.714743 -1.406113,-1.714743 0.07466,0 0.802956,0.327234 1.618443,0.727186 1.382824,0.678201 1.505171,0.69646 1.816232,0.271059 0.297205,-0.406452 0.388496,-0.413591 0.838261,-0.06555 0.491865,0.380617 0.488808,0.404063 -0.11989,0.919565 -0.830741,0.70355 -1.563152,0.666884 -2.746933,-0.137517 z m 23.354248,-1.037772 c -0.294698,-0.687505 -0.535816,-1.319042 -0.535816,-1.403415 0,-0.333213 -4.357971,-6.607751 -5.214527,-7.507794 -0.789285,-0.829357 -0.944323,-1.216424 -1.153044,-2.878689 -0.314932,-2.50813 -0.597468,-3.484593 -1.408864,-4.869136 -0.807558,-1.377993 -1.566548,-1.907359 -3.400516,-2.371728 -1.052787,-0.26657 -1.474636,-0.522544 -1.735923,-1.053344 -0.202084,-0.410529 -0.565012,-0.701199 -0.875511,-0.701199 -0.29169,0 -0.45676,-0.119062 -0.366823,-0.264583 0.456506,-0.738643 7.357646,0.167053 10.042659,1.317984 1.441267,0.617799 2.849871,2.069625 3.456211,3.562261 0.852362,2.098271 1.071865,2.396057 1.988184,2.697253 0.691654,0.227347 0.897993,0.431481 0.839338,0.830368 -0.04639,0.31545 0.345939,1.018474 0.972098,1.741945 0.57743,0.667168 1.124603,1.448487 1.21594,1.736265 0.09407,0.296393 -0.137991,1.360506 -0.535283,2.454515 -0.385743,1.062206 -1.091864,3.216636 -1.569157,4.787622 -0.477293,1.570987 -0.938758,2.927291 -1.025478,3.014011 -0.08672,0.08672 -0.398789,-0.404832 -0.693488,-1.092336 z m -31.711181,-2.661346 c 0.09187,-3.517671 0.135278,-3.770773 0.862214,-5.027084 0.421011,-0.727604 0.954562,-1.706843 1.185668,-2.176087 0.231105,-0.469243 0.608036,-0.91724 0.837624,-0.995548 0.229588,-0.07831 0.97308,-0.914771 1.652204,-1.858809 0.754601,-1.048955 1.425165,-1.716431 1.724373,-1.716431 0.269281,0 0.699964,-0.232448 0.957074,-0.516551 0.620704,-0.685871 2.891406,-1.132259 4.199565,-0.825576 1.239814,0.290661 1.327528,0.371752 1.11759,1.033208 -0.212682,0.670102 -2.068612,1.542839 -4.401091,2.06958 -1.003507,0.22662 -2.358012,0.765382 -3.010012,1.197249 -1.996867,1.32267 -4.112622,4.662184 -4.112006,6.490404 5.33e-4,1.582167 -0.577825,5.473478 -0.856875,5.765228 -0.16138,0.168725 -0.218017,-1.077434 -0.156328,-3.439583 z m 3.803014,1.327524 c -0.09968,-0.79783 -0.111743,-1.56305 -0.0268,-1.700489 0.187938,-0.30409 1.983819,-0.921188 2.162077,-0.74293 0.172674,0.172674 -1.50485,3.89402 -1.755363,3.89402 -0.10927,0 -0.280231,-0.65277 -0.379914,-1.450601 z m 4.354103,0.5734 c -1.654917,-0.995439 -1.903821,-1.549501 -0.970744,-2.160877 0.873661,-0.572444 1.908631,-0.289934 2.248277,0.613702 0.378763,1.007704 0.59451,2.424568 0.368997,2.423282 -0.105503,-6.02e-4 -0.846441,-0.39485 -1.64653,-0.876107 z m -11.391878,-0.601069 c -0.353433,-0.912396 -0.177173,-2.842984 0.381675,-4.180495 0.541986,-1.297155 1.07673,-1.273433 0.819795,0.03637 -0.107046,0.545703 -0.225139,1.74592 -0.262428,2.667149 -0.08018,1.980815 -0.492595,2.629489 -0.939042,1.476976 z m 17.104975,-1.452146 c -0.859344,-0.570459 -2.201271,-1.238571 -2.98206,-1.484693 -1.386103,-0.43693 -1.447761,-0.433821 -2.611822,0.131724 -1.403678,0.681959 -1.442633,0.687824 -1.442633,0.217209 0,-0.383784 1.896572,-0.990091 4.612655,-1.474602 2.884586,-0.514568 2.914837,-0.502754 3.693584,1.44252 1.061945,2.652692 1.022172,2.689274 -1.269724,1.167842 z m -10.618681,-2.030522 c -0.09161,-0.545703 -0.282425,-1.37185 -0.424037,-1.835882 -0.317589,-1.040676 0.08706,-1.911507 1.537,-3.30774 1.267978,-1.221011 2.097374,-1.537107 4.033171,-1.537107 h 1.529519 l 2.534755,2.461667 2.534754,2.461667 -2.907718,0.459237 c -1.599245,0.252581 -4.165441,0.871237 -5.702657,1.374792 -1.537216,0.503554 -2.833928,0.915554 -2.881583,0.915554 -0.04765,0 -0.161596,-0.446485 -0.253204,-0.992188 z m 18.72706,-2.443806 c -0.180525,-0.289067 -0.328228,-0.767939 -0.328228,-1.06416 0,-0.873932 -2.104492,-2.034644 -4.048159,-2.232721 -1.907997,-0.194442 -7.328924,-1.450677 -7.328924,-1.69839 0,-0.09273 0.543358,-0.456853 1.207462,-0.80916 0.666999,-0.353841 1.388544,-0.990729 1.61202,-1.422885 0.378679,-0.732285 0.36867,-0.818214 -0.156479,-1.343363 -0.47585,-0.47585 -0.874698,-0.561036 -2.626828,-0.561036 -1.759077,0 -2.21957,0.09919 -3.101505,0.668035 -0.569641,0.36742 -1.273837,0.797096 -1.564878,0.954837 -0.291042,0.15774 -1.068101,0.979347 -1.726797,1.825793 -1.480408,1.902369 -1.947999,2.131509 -1.704857,0.835453 0.394386,-2.10226 -0.550152,-2.780729 -1.891393,-1.3586 l -0.894662,0.948618 v -1.749171 c 0,-2.573918 0.985047,-4.197402 3.439584,-5.668875 1.153543,-0.691539 1.76684,-0.697713 2.778125,-0.02796 1.11973,0.741568 1.65345,0.671399 4.147505,-0.545279 2.516419,-1.227588 3.323728,-1.244064 5.047955,-0.103024 0.828198,0.548075 1.241725,0.660158 1.947288,0.527793 0.765691,-0.143644 0.895793,-0.09416 0.895793,0.340708 0,0.676373 0.445115,0.994651 1.710649,1.223194 3.021275,0.545613 4.426041,2.63778 4.81321,7.168477 0.16369,1.915523 -0.133797,2.969267 -1.172813,4.154277 -0.516885,0.589513 -0.651846,0.581504 -1.054068,-0.06256 z m -24.210878,-5.878371 c -0.402385,-0.684515 -0.994424,-1.428656 -1.315643,-1.653646 -0.917937,-0.642948 -2.529333,-0.496649 -4.273888,0.388029 -0.857252,0.434719 -1.675667,0.790398 -1.818701,0.790398 -0.433509,0 -0.06832,-2.744141 0.513723,-3.860316 0.524041,-1.004938 0.579651,-1.034565 1.94761,-1.037591 1.243382,-0.0028 1.458475,-0.08629 1.838074,-0.713862 0.236449,-0.390911 0.642365,-1.611942 0.902035,-2.713402 0.406318,-1.72351 0.654786,-2.202514 1.782571,-3.43649 1.34177,-1.46811 2.074059,-1.837116 4.25275,-2.14299 0.684661,-0.0961 1.454369,-0.32798 1.710462,-0.51524 0.291658,-0.21327 0.672714,-0.26174 1.019907,-0.12974 0.330123,0.12552 1.136404,0.053 1.993704,-0.17934 3.154947,-0.855002 7.89983,0.10412 9.493252,1.918924 0.931655,1.061096 0.90985,0.918982 0.484788,3.159708 -0.289529,1.526263 -0.392295,1.712839 -0.943435,1.712839 -0.340183,0 -0.861442,-0.130011 -1.158355,-0.288914 -1.080248,-0.578132 -2.651321,-0.359339 -4.644286,0.646778 -2.222352,1.121919 -2.618513,1.162358 -3.911785,0.399309 -0.83496,-0.492639 -1.087082,-0.52733 -1.951097,-0.268464 -1.405367,0.421058 -3.382875,2.046033 -4.212331,3.461392 -0.566845,0.967248 -0.733575,1.651508 -0.842249,3.456586 l -0.135497,2.250605 z m 34.694942,-0.91166 c -0.237875,-0.06587 -0.681888,-0.803743 -0.986697,-1.639709 -0.702807,-1.927516 -2.114056,-3.582123 -3.771724,-4.422127 -1.969783,-0.998165 -5.565977,-1.775002 -8.367968,-1.80762 -2.707225,-0.03151 -2.637326,0.03009 -2.152149,-1.896725 0.22762,-0.90396 0.219164,-1.362644 -0.0365,-1.979873 -0.471881,-1.139221 -2.142825,-2.476396 -3.766556,-3.014208 -1.975775,-0.6544 -5.285506,-0.80543 -7.070878,-0.32265 -0.995922,0.2693 -1.600667,0.31109 -1.93242,0.13354 -0.445148,-0.23823 -0.424923,-0.30183 0.258931,-0.81416 0.407987,-0.30566 1.218045,-1.00552 1.800129,-1.55523 1.210402,-1.14309 1.808024,-1.40817 4.119982,-1.8274 0.920477,-0.16692 2.689327,-0.81873 3.977475,-1.46567 3.130637,-1.5723 4.100278,-1.70842 5.659761,-0.7945 0.667022,0.3909 1.619508,1.06785 2.116634,1.50433 0.879043,0.77181 0.955437,0.78853 2.781578,0.60859 l 1.877711,-0.18503 -0.172889,0.68885 c -0.230606,0.9188 0.584633,2.21156 2.300735,3.64836 1.434177,1.200762 2.115682,2.170628 3.137587,4.465173 0.356453,0.800365 1.039382,2.036599 1.517619,2.747186 0.478238,0.710588 0.928179,1.544026 0.99987,1.852084 0.07169,0.308058 -0.08231,1.810261 -0.342231,3.33823 -0.495257,2.911448 -0.631588,3.103107 -1.948,2.738559 z m -52.354342,-2.748843 c -0.303504,-1.265144 -0.284591,-1.38405 0.370485,-2.329326 0.379673,-0.547868 0.690315,-1.309396 0.690315,-1.692283 0,-1.189895 0.51288,-2.139413 1.843667,-3.413263 0.705271,-0.675097 1.274585,-1.389472 1.265141,-1.5875 -0.06623,-1.388829 0.05577,-1.612925 0.793796,-1.458124 2.325486,0.487766 2.47616,0.492689 2.920854,0.09542 0.248921,-0.222371 0.74489,-0.444931 1.102154,-0.494581 0.514135,-0.0714 0.76498,-0.39335 1.203099,-1.543892 0.631908,-1.65943 1.269409,-2.10848 3.001702,-2.11436 1.05867,-0.004 1.300814,0.13817 3.042709,1.78129 1.040877,0.98185 1.938468,1.811642 1.994647,1.843982 0.05618,0.0323 -0.568899,0.783608 -1.389063,1.669482 -0.820163,0.885874 -1.491206,1.722957 -1.491206,1.860183 0,0.137226 -0.45464,0.249502 -1.010311,0.249502 -1.490791,0 -3.277188,0.603842 -7.020542,2.3731 -3.545423,1.675707 -5.160935,2.989323 -6.273782,5.101379 -0.287532,0.545703 -0.568022,0.992188 -0.623311,0.992188 -0.05529,0 -0.244448,-0.59994 -0.420354,-1.333201 z"
       style="display:inline;fill:#bd0000;fill-opacity:1;stroke:#ffffff;stroke-width:0;stroke-dasharray:none;stroke-opacity:1"
       id="path1-7"
       inkscape:label="Rosa"
       transform="matrix(1.0033312,0,0,1.0138942,178.49843,109.10177)" /></g></svg>
